<?xml version="1.0" encoding="UTF-8"?>
<svg xmlns="http://www.w3.org/2000/svg" xmlns:xlink="http://www.w3.org/1999/xlink" width="720px" height="705px" viewBox="0 0 719 705" version="1.1">
<g id="surface1">
<path style=" stroke:none;fill-rule:evenodd;fill:rgb(14.117647%,16.078431%,18.431373%);fill-opacity:1;" d="M 358.429688 0 C 160.226562 0 0 161.5625 0 361.4375 C 0 521.207031 102.664062 656.449219 245.082031 704.316406 C 262.890625 707.914062 269.414062 696.539062 269.414062 686.972656 C 269.414062 678.59375 268.824219 649.871094 268.824219 619.945312 C 169.117188 641.492188 148.355469 576.859375 148.355469 576.859375 C 132.332031 534.96875 108.589844 524.203125 108.589844 524.203125 C 75.957031 502.0625 110.96875 502.0625 110.96875 502.0625 C 147.167969 504.457031 166.164062 539.164062 166.164062 539.164062 C 198.203125 594.210938 249.832031 578.65625 270.601562 569.082031 C 273.566406 545.742188 283.066406 529.585938 293.152344 520.613281 C 213.632812 512.234375 129.964844 481.117188 129.964844 342.285156 C 129.964844 302.789062 144.195312 270.476562 166.75 245.347656 C 163.191406 236.375 150.726562 199.265625 170.316406 149.597656 C 170.316406 149.597656 200.578125 140.023438 268.816406 186.699219 C 298.035156 178.789062 328.164062 174.765625 358.429688 174.730469 C 388.691406 174.730469 419.542969 178.921875 448.03125 186.699219 C 516.277344 140.023438 546.542969 149.597656 546.542969 149.597656 C 566.132812 199.265625 553.660156 236.375 550.101562 245.347656 C 573.25 270.476562 586.894531 302.789062 586.894531 342.285156 C 586.894531 481.117188 503.226562 511.632812 423.109375 520.613281 C 436.167969 531.980469 447.4375 553.519531 447.4375 587.632812 C 447.4375 636.101562 446.851562 675 446.851562 686.964844 C 446.851562 696.539062 453.378906 707.914062 471.179688 704.324219 C 613.601562 656.441406 716.261719 521.207031 716.261719 361.4375 C 716.851562 161.5625 556.035156 0 358.429688 0 Z M 358.429688 0 "/>
</g>
</svg>
